<?xml version="1.0" encoding="utf-8" ?><svg xmlns="http://www.w3.org/2000/svg" xmlns:xlink="http://www.w3.org/1999/xlink" width="1024" height="1024" viewBox="0 0 1024 1024"><defs><linearGradient id="gradient_0" gradientUnits="userSpaceOnUse" x1="525.97266" y1="500.6387" x2="455.84424" y2="307.83722"><stop offset="0" stop-color="#477765"/><stop offset="1" stop-color="#86AA6E"/></linearGradient></defs><path fill="url(#gradient_0)" d="M519.289 247.131C531.44 247.886 544.218 246.879 556.456 247.235C566.553 247.528 577.514 251.124 576.823 263.189C579.122 277.158 576.964 381.89 578.158 383.369C579.247 386.922 578.953 390.37 578.762 394.046C577.685 403.208 576.867 412.155 579.351 421.094C566.706 429.711 558.43 436.018 547.141 446.451C538.664 435.824 530.165 432.225 517.549 428.678C517.425 425.97 517.202 422.886 517.4 420.188C518.385 406.755 534.18 411.111 535.132 398.054C536.499 379.311 516.798 375.341 505.551 387.441C494.412 399.424 494.043 415.957 494.065 431.322L485.604 437.028C476.863 430.674 468.785 428.894 458.058 428.376C450.364 428.004 441.566 428.024 435.052 432.791C431.563 435.299 429.264 439.136 428.698 443.396C428.118 447.857 429.345 452.365 432.107 455.916C441.344 467.724 453.97 459.379 462.359 452.026C470.827 455.34 472.011 455.405 470.724 464.857C468.801 478.989 472.957 487.061 480.182 498.583C467.193 510.068 458.72 518.446 446.878 531.324C446.617 527.627 446.866 522.651 446.95 518.851C437.019 518.465 417.59 518.518 407.777 518.95C407.44 509.255 407.514 499.549 407.997 489.86C414.649 485.528 426.594 480.822 431.584 475.229C432.534 474.164 433.406 472.723 433.129 471.235C432.913 470.067 431.955 469.021 430.932 468.475C426.656 466.193 407.945 478.812 402.503 480.873C402.325 480.94 402.145 481.002 401.966 481.067C394.006 476.594 385.008 471.692 377.529 466.599C376.575 460.05 377.087 444.432 377.15 437.216C383.063 433.215 397.317 425.145 403.533 422.212C410.263 425.088 416.684 430.563 423.485 432.563C424.798 432.95 426.618 431.665 427.614 430.601C429.977 423.474 413.119 416.133 408.017 413.868C407.846 403.657 407.771 393.443 407.793 383.23L447.057 383.075L446.908 352.911C454.84 347.129 473.59 337.509 482.622 333.054C490.689 336.692 501.75 343.462 509.047 348.457C509.416 353.201 507.436 372.775 513.518 373.458C521.64 374.371 520.062 353.131 519.986 347.906C525.529 343.79 538.84 336.63 545.148 333.255C549.598 335.364 564.081 345.3 567.71 343.995C568.741 342.519 569.932 341.037 569.428 339.119C568.022 333.773 555.245 327.602 550.484 324.896C550.118 315.012 550.009 305.12 550.158 295.23C553.51 293.342 578.36 280.844 566.991 275.57C564.871 275.638 563.522 276.498 561.589 277.411C559.505 278.626 554.821 281.514 552.83 282.328C550.756 284.056 546.68 286.506 544.354 287.953C542.141 286.537 538.68 284.467 536.801 282.844C532.624 281.009 523.497 275.566 519.668 272.971C519.053 265.104 519.284 255.177 519.289 247.131Z"/><path fill="#8CA469" d="M519.289 247.131C531.44 247.886 544.218 246.879 556.456 247.235C566.553 247.528 577.514 251.124 576.823 263.189C576.52 264.735 576.242 265.99 575.846 267.515C573.489 267.821 576.025 265.872 570.8 267.616C562.019 270.546 553.638 274.675 544.922 277.929C541.734 279.119 537.991 277.678 535.976 280.128C536.126 281.738 535.772 281.098 536.772 282.216L536.801 282.844C532.624 281.009 523.497 275.566 519.668 272.971C519.053 265.104 519.284 255.177 519.289 247.131Z"/><path fill="#8CA469" d="M552.83 282.328L552.665 281.529C556.618 278.752 555.633 276.013 561.589 277.411C559.505 278.626 554.821 281.514 552.83 282.328Z"/><defs><linearGradient id="gradient_1" gradientUnits="userSpaceOnUse" x1="573.84778" y1="556.47101" x2="514.95953" y2="435.00504"><stop offset="0" stop-color="#C7773C"/><stop offset="1" stop-color="#E7C63D"/></linearGradient></defs><path fill="url(#gradient_1)" d="M633.407 411.686C639.938 410.797 651.519 412.003 655.782 416.886C669.394 432.474 652.722 461.561 641.819 472.642C636.638 477.857 630.584 482.125 623.931 485.253C603.849 494.697 590.726 489.332 569.757 486.877C557.18 485.405 545.955 485.449 533.384 485.496C545.296 494.684 557.926 497.202 572.211 499.653C562.65 514.265 547.146 524.807 530.6 529.949C529.145 515.688 527.746 505.928 521.563 493.003C521.623 501.544 519.933 510.656 519.51 519.224C517.867 552.448 513.361 599.205 471.537 604.826C452.244 607.431 434.79 596.642 438.816 575.208C446.273 535.503 484.385 510.988 514.208 488.851C505.714 491.354 493.616 494.229 486.871 486.402C477.497 475.526 481.276 456.291 491.345 447.005C497.271 441.617 505.109 438.829 513.106 439.263C525.098 439.906 532.099 446.281 539.617 454.733C537.407 461.241 535.32 468.093 532.907 474.484C560.668 448.907 594.768 417.078 633.407 411.686Z"/><defs><linearGradient id="gradient_2" gradientUnits="userSpaceOnUse" x1="680.10193" y1="522.20099" x2="633.8808" y2="373.03665"><stop offset="0" stop-color="#18484D"/><stop offset="1" stop-color="#4B8267"/></linearGradient></defs><path fill="url(#gradient_2)" d="M598.283 383.211C619.272 382.905 640.298 383.087 661.291 382.973C672.903 382.91 684.689 382.419 696.234 383.409C699.306 383.798 702.409 384.541 704.857 386.457C707.525 388.405 711.228 394.451 711.335 397.715C712.429 430.802 711.498 463.799 711.498 496.945C711.498 506.467 708.587 515.852 697.258 518.008C688.012 519.768 676.923 517.937 667.496 518.609C654.314 518.42 639.42 519.304 626.5 518.689C625.559 518.648 624.618 518.576 623.681 518.474C618.915 512.245 612.934 506.753 606.846 501.839C628.289 498.799 644.774 487.781 657.826 471.054C670.336 455.019 680.313 421.139 660.817 406.781C642.09 392.99 610.511 404.115 592.357 414.044C588.047 416.401 583.674 419.037 579.351 421.094C576.867 412.155 577.685 403.208 578.762 394.046C578.953 390.37 579.247 386.922 578.158 383.369L598.283 383.211Z"/><path fill="#5D856A" d="M578.158 383.369L598.283 383.211C599.478 386.949 600.5 385.691 600.479 387.033C595.214 389.062 584.576 392.35 578.762 394.046C578.953 390.37 579.247 386.922 578.158 383.369Z"/><path fill="#163941" d="M525.216 570.807C527.819 573.715 531.213 580.6 533.97 584.107C547.16 600.882 558.251 607.455 577.397 614.894L577.738 628.429C578.396 659.917 566.807 657.525 540.838 657.503L496.734 657.57L489.676 657.607C446.239 657.823 446.218 657.734 446.771 613.725C459.407 616.6 468.612 617.739 481.31 614C496.327 609.675 509.152 599.828 517.208 586.437C520.002 581.816 522.544 575.765 525.216 570.807Z"/><path fill="#8CA469" d="M468.804 247.24C482.283 246.8 495.911 247.554 509.468 247.026C509.491 255.262 509.424 263.497 509.268 271.732C503.536 276.321 489.415 284.108 482.565 288.109C475.721 283.723 468.297 279.228 461.054 275.491C458.551 274.2 455.217 272.571 452.71 274.32C450.038 281.838 471.043 291.364 476.685 294.661C480.142 298.044 478.487 318.238 478.238 323.838C467.997 329.948 457.586 335.767 447.017 341.29C446.89 324.545 446.887 307.799 447.008 291.055C447.009 287.608 446.954 284.078 447.01 280.632C447.325 261.479 444.779 247.787 468.804 247.24Z"/><path fill="#CA7F3A" d="M587.203 500.732C595.356 505.187 604.147 512.115 610.074 519.273C609.371 520.863 608.632 522.437 607.856 523.993C596.525 546.268 575.65 560.518 552.372 568.086C547.522 569.484 543.582 570.237 538.586 570.638C532.855 561.886 531.103 554.217 530.32 543.962C535.923 541.625 541.502 539.839 547.137 537.333C566.204 528.854 576.384 517.897 587.203 500.732Z"/><path fill="#163941" d="M556.815 726.625C570.679 725.699 581.718 732.072 584.43 746.501C585.783 753.476 584.311 760.703 580.338 766.593C571.408 779.885 558.109 779.978 546.001 771.261L546.033 780.125C545.928 784.067 547.271 792.06 544.474 795.137C542.603 797.194 536.092 797.383 534.122 795.119C533.147 792.67 533.137 787.138 533.148 784.249C533.218 765.976 532.406 747.447 533.494 729.235C533.684 726.057 543.001 726.694 545.036 727.475C546.485 728.714 546.596 729.816 547.155 731.657C551.05 729.089 552.474 728.064 556.815 726.625ZM561.767 765.076C568.975 763.409 573.487 756.239 571.872 749.02C570.258 741.801 563.121 737.237 555.891 738.799C548.585 740.377 543.964 747.603 545.595 754.897C547.226 762.191 554.486 766.76 561.767 765.076Z"/><path fill="#163941" d="M608.962 726.606C618.195 725.718 619.942 727.289 627.537 732.111C629.437 725.004 634.694 726.905 640.598 727.724C640.392 742.122 641.981 757.896 640.53 772.37C640.434 773.334 639.826 775.705 638.719 775.869C632.992 776.717 630.052 778.441 627.678 772.554L627.393 771.833L626.872 771.945C623.975 774.219 622.537 775.324 618.952 776.491C613.485 778.308 607.511 777.792 602.436 775.065C596.319 771.748 591.834 766.062 590.032 759.34C585.782 744.002 592.957 730.444 608.962 726.606ZM616.784 765.267C624.185 764.115 629.225 757.148 628.004 749.758C626.782 742.368 619.768 737.394 612.39 738.685C605.11 739.959 600.215 746.86 601.421 754.152C602.626 761.444 609.481 766.403 616.784 765.267Z"/><path fill="#163941" d="M703.629 726.608C712.182 725.939 714.934 727.667 721.755 732.348C723.57 724.536 728.446 726.835 735.031 727.834C735.039 733.333 735.895 773.723 734.016 775.321C732.428 776.672 728.431 777.125 726.459 776.706C724.114 776.207 722.959 773.905 721.635 772.17L720.697 772.48C717.805 774.374 715.975 775.592 712.537 776.567C706.884 778.185 700.815 777.412 695.748 774.428C680.265 765.513 678.061 741.247 693.146 730.7C696.554 728.317 699.681 727.502 703.629 726.608ZM711.245 765.206C718.621 763.97 723.576 756.96 722.282 749.594C720.987 742.229 713.939 737.328 706.584 738.68C699.309 740.018 694.475 746.971 695.755 754.256C697.035 761.54 703.95 766.429 711.245 765.206Z"/><path fill="#8CA469" d="M512.459 281.404C517.221 281.435 534.997 292.8 540.13 295.835L540.474 324.44C534.633 328.453 521.441 336.219 515.241 339.333C511.329 339.742 492.665 327.36 488.272 324.522C488.11 315.109 488.085 305.694 488.198 296.281C495.852 291.191 504.511 286.009 512.459 281.404Z"/><path fill="#5D856A" d="M340.865 422.919C346.398 423.378 362.532 434.053 367.771 437.337C368.308 446.127 368.022 457.893 367.512 466.634C361.355 471.048 350.01 477.253 343.246 480.593C338.599 480.713 321.688 469.671 316.493 466.626C316.069 457.236 316.168 447.001 315.957 437.513C322.221 433.161 333.938 426.885 340.865 422.919Z"/><path fill="#5D856A" d="M366.197 726.23C375.629 726.712 372.724 728.652 379.817 730.988C383.808 726.271 387.345 725.199 392.762 728.338C394.875 731.964 393.861 769.778 392.493 775.973C390.217 776.084 384.731 776.567 382.575 775.713C381.042 775.105 380.948 773.943 380.45 772.513C378.845 772.635 377.612 773.736 376.216 774.676C352.413 786.468 331.938 755.565 347.356 736.185C352.239 730.046 358.565 727.084 366.197 726.23ZM371.246 764.996C378.553 763.378 383.143 756.116 381.469 748.821C379.796 741.527 372.5 736.992 365.218 738.72C358.013 740.43 353.537 747.632 355.193 754.85C356.848 762.067 364.016 766.598 371.246 764.996Z"/><path fill="#975236" d="M618.933 530.725C621.912 532.049 626.456 543.529 627.763 546.806C629.814 552.059 628.83 557.552 626.223 562.428C617.384 578.895 600.277 590.831 582.711 596.393C575.005 598.832 570.844 598.792 563.795 595.196C557.888 591.864 552.472 587.989 548.424 582.491C550.459 581.974 552.491 581.44 554.518 580.889C583.807 572.903 603.887 557.082 618.933 530.725Z"/><path fill="#5D856A" d="M348.77 383.202L380.139 383.41C385.558 383.44 393.309 383.715 398.509 383.165C398.54 393.276 398.507 403.387 398.409 413.497C394.97 415.673 391.515 417.822 388.044 419.944C383.09 422.753 377.915 426.117 372.713 428.271C366.661 426.266 353.601 417.466 346.775 413.907C346.552 409.434 345.845 386.474 347.168 383.701L348.77 383.202Z"/><path fill="#5D856A" d="M371.509 475.387C378.567 477.653 391.499 485.668 398.406 489.736C398.614 499.164 398.468 509.248 398.445 518.713C390.276 518.371 380.654 518.659 372.375 518.714C363.864 518.745 355.064 518.664 346.58 518.906C346.719 509.169 346.353 499.636 346.734 489.846C352.935 485.506 364.73 479.217 371.509 475.387Z"/><path fill="#5D856A" d="M408.261 708.106C411.558 707.934 414.45 707.419 416.956 709.595C418.525 713.257 418.043 728.551 418.119 733.657C431.952 722.048 447.617 723.487 451.531 743.792C452.262 747.584 453.309 774.105 450.295 775.528C435.555 782.487 438.903 763.786 439.091 755.625C439.114 748.077 438.658 736.059 426.683 738.22C410.994 741.051 422.575 766.034 416.774 774.982C415.976 776.213 413.2 776.725 411.839 776.601C405.069 776.995 405.331 773.698 404.975 768.237C404.711 749.161 405.381 729.914 405.589 710.83C405.602 709.629 407.356 708.678 408.261 708.106Z"/><path fill="#5D856A" d="M312.119 726.577C338.879 725.095 335.285 746.469 335.613 764.911C335.673 768.283 335.851 770.852 334.908 774.159C333.051 776.772 326.377 777.813 324.584 775.777C316.894 767.039 331.024 732.197 307.613 739.028L306.92 739.236C299.605 746.58 300.37 756.446 301.372 766.055C302.186 773.862 295.463 780.548 289.258 775.549C287.53 770.103 287.119 733.679 288.665 728.029C291.385 726.381 297.24 726.546 299.909 728.403C300.588 728.875 300.698 731.508 300.829 732.488C305.427 729.306 306.713 727.945 312.119 726.577Z"/><path fill="#5D856A" d="M325.911 383.556C329.594 383.432 333.776 383.537 337.499 383.543L337.505 413.833L321.354 423.475C318.291 425.025 315.504 426.581 312.516 428.272C312.408 418.787 311.796 408.824 312.899 399.416C313.894 390.937 317.772 386.063 325.911 383.556Z"/><path fill="#5D856A" d="M465.136 708.113C466.08 708.085 467.026 708.078 467.97 708.093C470.616 708.111 472.824 707.917 474.743 709.856C476.457 719.704 475.198 762.201 474.44 774.241C474.371 775.347 473.022 775.798 472.065 776.313C470.466 776.382 468.83 776.491 467.232 776.393C466.064 776.321 464.063 775.984 463.357 774.934C461.936 772.819 461.301 714.785 462.757 710.192C463.195 708.811 463.931 708.703 465.136 708.113Z"/><path fill="#163941" d="M673.212 726.616C673.778 726.574 674.344 726.546 674.91 726.53C684.055 726.208 682.935 731.125 682.42 738.304C680.87 738.523 679.323 738.756 677.777 739.002C649.679 743.531 676.791 776.007 657.332 776.509C654.254 776.453 651.786 776.696 651.765 772.628C651.732 766.366 650.405 730.459 652.382 728.034C655.651 726.54 659.372 726.371 662.762 727.564C664.043 728.587 664.285 730.466 664.734 732.139C668.1 728.986 669.106 728.284 673.212 726.616Z"/><path fill="#5D856A" d="M313.203 474.841C318.769 477.406 332.434 486.124 337.472 489.775C337.564 493.817 338.097 516.931 336.852 518.95C329.715 518.426 322.944 518.346 317.492 512.706C309.642 504.585 312.772 486.05 313.203 474.841Z"/><path fill="#5D856A" d="M490.225 726.688C492.003 726.565 494.093 726.359 495.805 726.985C496.997 727.42 497.864 728.071 498.343 729.272C499.641 732.536 499.676 771.67 498.426 774.252C497.773 775.6 496.646 775.816 495.38 776.357C493.977 776.426 492.572 776.436 491.168 776.389C489.375 776.318 488.384 776.134 487.123 774.8C485.419 769.195 485.491 734.239 486.563 728.112C487.657 727.011 488.448 727.142 490.225 726.688Z"/><path fill="#975236" d="M631.226 574.297L631.662 574.696C633.093 580.21 624.198 603.468 621.676 609.895C612.482 609.565 603.303 608.887 594.16 607.862C592.825 607.683 591.906 607.752 591.015 606.804C591.972 604.012 600.462 601.659 603.281 600.113C615.11 593.621 623.44 585.27 631.226 574.297Z"/><path fill="#5D856A" d="M490.763 706.254C494.888 705.27 499.028 707.822 500.002 711.949C500.976 716.076 498.414 720.211 494.285 721.175C490.169 722.136 486.052 719.585 485.081 715.471C484.11 711.358 486.652 707.235 490.763 706.254Z"/><path fill="#D9B23F" d="M450.293 442.421C456.62 439.422 459.413 438.827 466.271 439.831C464.542 440.082 463.099 440.119 461.573 440.887C460.808 440.925 460.044 440.983 459.282 441.062C446.345 442.476 453.28 446.215 448.2 452.528C441.476 455.658 434.03 442.192 443.422 439.741C445.87 439.102 448.049 440.699 449.794 442.034L450.293 442.421Z"/><path fill="#D9B23F" d="M510.712 400.086C512.166 396.349 513.171 392.882 517.218 391.191C522.445 389.007 526.462 395.674 523.54 399.764C520.533 403.973 516.471 401.564 513.019 399.683L512.44 399.863L510.712 400.086Z"/><path fill="#E5B526" fill-opacity="0.95294118" d="M512.44 399.863C508.338 405.081 506.396 415.15 506.32 421.593C506.3 423.242 506.244 426.851 505.69 428.227L505.062 428.041C503.825 417.623 506.487 409.399 510.712 400.086L512.44 399.863Z"/><path fill="#E5B526" fill-opacity="0.96470588" d="M466.271 439.831C471.866 441.716 477.712 444.345 481.382 449.208C473.994 444.437 470.363 441.913 461.573 440.887C463.099 440.119 464.542 440.082 466.271 439.831Z"/></svg>